<svg width="58" height="58" viewBox="0 0 58 58" fill="none" xmlns="http://www.w3.org/2000/svg">
<circle cx="29" cy="29" r="29" fill="#3D77F5"/>
<path d="M29.5566 16C22.1464 16 16.1158 22.0021 16.1132 29.3785C16.1115 31.7374 16.7316 34.0396 17.9074 36.0673L16 43L23.1271 41.1397C25.1096 42.2113 27.314 42.7703 29.5514 42.7687H29.5566C36.9668 42.7687 42.9974 36.7657 43 29.3893C43.0017 25.8163 41.6047 22.453 39.0658 19.9249C36.5278 17.3959 33.1528 16.0009 29.5566 16ZM29.5566 40.5088H29.5523C27.5473 40.5088 25.5806 39.9724 23.8648 38.959L23.4555 38.7178L19.2278 39.8212L20.3566 35.7172L20.0909 35.2969C18.9751 33.5384 18.3812 31.4813 18.3821 29.3785C18.3847 23.2468 23.398 18.2599 29.561 18.2599C32.5449 18.2608 35.3503 19.4191 37.4606 21.5206C39.571 23.6221 40.732 26.4166 40.7303 29.3884C40.7276 35.5201 35.7152 40.5088 29.5557 40.5088H29.5566ZM35.6856 32.1793C35.3494 32.0128 33.6981 31.2037 33.3897 31.0912C33.0823 30.9805 32.8585 30.9229 32.6346 31.2577C32.4116 31.5925 31.7671 32.3458 31.572 32.5681C31.3752 32.7913 31.1792 32.8183 30.843 32.6518C30.5068 32.4844 29.4242 32.1316 28.1422 30.9922C27.1432 30.1066 26.469 29.0122 26.2731 28.6765C26.0771 28.3426 26.2522 28.1617 26.4203 27.9952C26.5709 27.8467 26.7565 27.6055 26.9237 27.4102C27.0909 27.2149 27.1466 27.0754 27.2599 26.8522C27.3714 26.6299 27.3156 26.4337 27.2311 26.2672C27.1466 26.0989 26.476 24.4537 26.1947 23.785C25.9229 23.1334 25.646 23.2207 25.4395 23.2099C25.2436 23.2009 25.0206 23.1982 24.795 23.1982C24.5729 23.1982 24.208 23.2819 23.8997 23.6167C23.5922 23.9515 22.7239 24.7597 22.7239 26.4049C22.7239 28.051 23.9275 29.6404 24.0956 29.8636C24.2637 30.0859 26.4647 33.4636 29.8345 34.9126C30.6357 35.2555 31.2611 35.4616 31.7497 35.6164C32.5545 35.8711 33.287 35.8342 33.8653 35.7487C34.5098 35.6524 35.8528 34.9405 36.1315 34.1602C36.412 33.3799 36.412 32.7103 36.3284 32.5708C36.2465 32.4313 36.0218 32.3476 35.6856 32.1793Z" fill="white"/>
</svg>
